# Blender v2.80 (sub 75) OBJ File: ''
# www.blender.org
mtllib Ñ.mtl
o Cube.002
v 0.180832 -0.745504 -0.211751
v 1.546066 -0.745504 -0.192687
v 1.539645 -0.745504 0.267149
v 0.174411 -0.745504 0.248085
v -0.163046 1.119982 -0.216554
v -0.169468 1.119982 0.243283
v 0.299481 1.119982 0.249832
v 0.305903 1.119982 -0.210005
v -0.894714 1.104268 0.233084
v -0.401786 0.507336 0.239967
v -0.401786 1.119377 0.239967
v 1.546066 -0.340316 -0.192687
v 1.539645 -0.340316 0.267149
v 0.994537 -0.294496 0.259537
v -0.169469 -0.305193 0.243283
v -0.163047 -0.305193 -0.216554
v -0.163048 -1.216630 -0.216553
v -0.169469 -1.216630 0.243283
v 1.000958 -0.294496 -0.200300
v 0.200294 -1.222569 -0.211479
v 0.193872 -1.222569 0.248357
v -1.340791 -0.075523 0.226856
v -1.334493 -0.075523 -0.224207
v -1.334493 -0.731178 -0.224207
v -1.340791 -0.731178 0.226856
v -0.912427 0.551492 -0.218314
v -1.334493 0.634134 -0.224207
v -1.334493 1.119377 -0.224207
v -0.888415 1.104269 -0.217979
v -0.395487 -0.129772 -0.211096
v -0.401786 -0.129772 0.239967
v -0.401786 -0.731178 0.239967
v -0.395488 -0.731178 -0.211096
v -0.395487 1.119377 -0.211096
v -1.340791 1.119377 0.226856
v -0.395487 0.507336 -0.211096
v -0.918725 0.551492 0.232749
v -1.340791 0.634134 0.226856
v -0.898340 -0.066768 -0.218117
v -0.904639 -0.066768 0.232946
v -0.907234 -0.684649 -0.218241
v -0.913532 -0.684649 0.232822
vn -0.0000 -1.0000 0.0000
vn 0.0000 1.0000 -0.0000
vn -0.0140 0.0000 0.9999
vn 0.7621 0.6474 0.0106
vn -0.9999 0.0000 -0.0140
vn 0.9999 0.0000 0.0140
vn -0.7721 -0.6355 -0.0108
vn -0.0092 1.0000 -0.0001
vn -0.0163 -0.9999 -0.0002
vn 0.9991 0.0408 0.0140
vn 0.0140 0.0000 -0.9999
vn -0.7710 -0.6368 -0.0108
vn 0.9990 -0.0434 0.0139
vn 0.7965 0.6045 0.0111
vn -0.8489 -0.5284 -0.0119
vn -0.9998 0.0144 -0.0140
vn 0.8186 0.5743 0.0114
usemtl Material.002
s off
f 1//1 2//1 3//1 4//1
f 5//2 6//2 7//2 8//2
f 9//3 10//3 11//3
f 12//4 8//4 7//4 13//4
f 14//3 15//3 4//3
f 16//5 17//5 18//5 15//5
f 2//6 12//6 13//6 3//6
f 5//7 19//7 14//7 6//7
f 19//8 16//8 15//8 14//8
f 17//9 20//9 21//9 18//9
f 20//10 1//10 4//10 21//10
f 22//5 23//5 24//5 25//5
f 26//11 27//11 28//11 29//11
f 30//6 31//6 32//6 33//6
f 32//1 25//1 24//1 33//1
f 34//2 28//2 35//2 11//2
f 34//6 11//6 10//6 36//6
f 36//12 10//12 9//12 29//12
f 29//13 9//13 37//13 26//13
f 26//14 37//14 31//14 30//14
f 35//5 28//5 27//5 38//5
f 38//15 27//15 39//15 40//15
f 40//16 39//16 41//16 42//16
f 42//17 41//17 23//17 22//17
f 34//11 36//11 29//11
f 42//3 22//3 25//3
f 24//11 23//11 41//11
f 19//11 5//11 8//11
f 28//11 34//11 29//11
f 33//11 24//11 41//11
f 6//3 14//3 7//3
f 37//3 40//3 31//3
f 13//3 14//3 4//3 3//3
f 26//11 39//11 27//11
f 39//11 26//11 30//11
f 16//11 1//11 20//11 17//11
f 14//3 13//3 7//3
f 2//11 1//11 19//11 12//11
f 16//11 19//11 1//11
f 39//11 30//11 33//11 41//11
f 19//11 8//11 12//11
f 21//3 4//3 15//3 18//3
f 40//3 37//3 38//3
f 42//3 25//3 32//3
f 9//3 11//3 35//3
f 32//3 31//3 40//3 42//3
f 35//3 38//3 37//3 9//3
